<?xml version="1.0" encoding="UTF-8"?>
<svg width="256px" height="256px" viewBox="0 0 256 256" version="1.1" xmlns="http://www.w3.org/2000/svg" preserveAspectRatio="xMidYMid">
    <g>
        <path d="M210.483381,73.8236374 C207.827698,72.9095503 205.075867,72.0446761 202.24247,71.2267368 C202.708172,69.3261098 203.135596,67.4500894 203.515631,65.6059664 C209.753843,35.3248922 205.675082,10.9302478 191.747328,2.89849283 C178.392359,-4.80289661 156.551327,3.22703567 134.492936,22.4237776 C132.371761,24.2697233 130.244662,26.2241201 128.118477,28.2723861 C126.701777,26.917204 125.287358,25.6075897 123.876584,24.3549348 C100.758745,3.82852863 77.5866802,-4.82157937 63.6725966,3.23341515 C50.3303869,10.9571328 46.3792156,33.8904224 51.9945178,62.5880206 C52.5367729,65.3599011 53.1706189,68.1905639 53.8873982,71.068617 C50.6078941,71.9995641 47.4418534,72.9920277 44.4125156,74.0478303 C17.3093297,83.497195 0,98.3066828 0,113.667995 C0,129.533287 18.5815786,145.446423 46.8116526,155.095373 C49.0394553,155.856809 51.3511025,156.576778 53.7333796,157.260293 C52.9600965,160.37302 52.2875179,163.423318 51.7229345,166.398431 C46.3687351,194.597975 50.5500231,216.989464 63.8566899,224.664425 C77.6012619,232.590464 100.66852,224.443422 123.130185,204.809231 C124.905501,203.257196 126.687196,201.611293 128.472081,199.886102 C130.785552,202.113904 133.095375,204.222319 135.392897,206.199955 C157.14963,224.922338 178.637969,232.482469 191.932332,224.786092 C205.663234,216.837268 210.125675,192.78347 204.332202,163.5181 C203.88974,161.283006 203.374826,158.99961 202.796573,156.675661 C204.416503,156.196743 206.006814,155.702335 207.557482,155.188332 C236.905331,145.46465 256,129.745175 256,113.667995 C256,98.2510906 238.132466,83.3418093 210.483381,73.8236374 Z" fill="#00D8FF"></path>
        <path d="M201.345213,142.241309 C199.916538,142.694566 198.447765,143.132037 196.944103,143.556731 C194.683245,134.340288 191.356763,124.734067 187.071548,115.002979 C191.114634,105.495174 194.246997,96.0388541 196.384587,86.9523769 C199.095663,87.7320879 201.708556,88.5650814 204.200903,89.4579882 C228.383134,97.8777827 244,110.563362 244,121.667995 C244,133.44433 227.152391,147.152313 201.345213,142.241309 Z" fill="#00D8FF"></path>
        <path d="M171.906897,174.097954 C176.872743,180.806903 181.536316,186.639548 185.755476,191.341185 C179.634828,197.082232 173.500245,201.864858 167.602703,205.56577 C152.211779,215.692321 137.740061,219.330746 129.461178,214.800207 C121.575847,210.477135 117.071351,197.050581 118.751164,178.03104 C119.256542,174.936275 119.883297,171.753566 120.627233,168.499132 C129.853011,170.757974 139.643341,172.299517 149.827463,173.059324 C157.305329,179.916103 164.699997,167.097524 171.906897,174.097954 Z" fill="#00D8FF"></path>
        <path d="M132.664341,104.969725 C128.914081,98.5355536 125.035555,92.4470458 121.106623,86.8074746 C126.796669,87.0611922 132.698283,87.4321972 138.728999,87.9223831 C138.762524,94.0390877 138.201313,100.523598 137.055632,107.168958 C135.704441,106.478952 134.340188,105.752666 132.664341,104.969725 Z" fill="#00D8FF"></path>
        <path d="M85.4738752,139.162109 C82.5966209,140.936224 79.9085393,142.632582 77.4319252,144.230954 C54.5183811,138.652644 38,127.626915 38,121.667995 C38,110.557659 53.2432853,97.9202561 77.142185,89.5024135 C79.8318966,88.5469483 82.6746582,87.6576372 85.6307892,86.8372674 C87.7965428,96.0180399 90.9239338,105.523239 94.8560734,115.000814 C90.8894733,124.604263 87.7059502,134.208589 85.4738752,139.162109 Z" fill="#00D8FF"></path>
        <path d="M84.0033732,174.097954 C77.0196242,167.097524 69.6249564,179.916103 62.1470907,173.059324 C51.9609686,172.299517 42.1706377,170.757974 32.9448602,168.499132 C32.2009242,171.753566 31.5741683,174.936275 31.0687906,178.03104 C29.3889776,197.050581 33.8934736,210.477135 41.7788052,214.800207 C50.0576879,219.330746 64.5294055,215.692321 79.9203293,205.56577 C85.8178707,201.864858 91.9524542,197.082232 98.0731023,191.341185 C93.8539422,186.639548 89.1903694,180.806903 84.0033732,174.097954 Z" fill="#00D8FF"></path>
        <path d="M123.335659,104.969725 C125.011506,105.752666 126.375759,106.478952 127.72695,107.168958 C128.872631,100.523598 129.433842,94.0390877 129.400317,87.9223831 C123.369601,87.4321972 117.467987,87.0611922 111.777941,86.8074746 C115.706873,92.4470458 119.585399,98.5355536 123.335659,104.969725 Z" fill="#00D8FF"></path>
    </g>
</svg> 