<?xml version="1.0" encoding="UTF-8"?>
<svg width="256px" height="256px" viewBox="0 0 256 256" version="1.1" xmlns="http://www.w3.org/2000/svg" preserveAspectRatio="xMidYMid">
    <g>
        <rect fill="#3178C6" x="0" y="0" width="256" height="256" rx="28"></rect>
        <path d="M56.6112759,129.610744 L56.6112759,142.230637 C58.4219453,143.136608 60.5275187,143.809965 62.9279961,144.250709 C65.3284736,144.691452 67.8811013,144.911824 70.5858792,144.911824 C73.1915035,144.911824 75.6430703,144.661468 77.9405796,144.160756 C80.238089,143.660044 82.2437575,142.864207 83.9575852,141.773244 C85.6714129,140.682282 87.0372749,139.26718 88.0551712,137.527939 C89.0730675,135.788697 89.5820157,133.690628 89.5820157,131.233731 C89.5820157,129.522947 89.2874198,127.99806 88.6982279,126.65907 C88.1090361,125.32008 87.2755133,124.127046 86.1976597,123.079968 C85.1198061,122.032889 83.8292499,121.098849 82.3259912,120.277847 C80.8227325,119.456845 79.1373804,118.694179 77.2699111,117.989847 C75.8499523,117.432203 74.5815058,116.902563 73.4645636,116.400926 C72.3476214,115.899288 71.4014457,115.38389 70.6260365,114.854731 C69.8506273,114.325572 69.2459846,113.766977 68.8121084,113.178947 C68.3782322,112.590916 68.1612941,111.938805 68.1612941,111.222612 C68.1612941,110.579077 68.3372055,110.006893 68.6890282,109.506061 C69.040851,109.005228 69.5471985,108.582716 70.2080707,108.238523 C70.8689429,107.89433 71.6649561,107.628457 72.5961102,107.440904 C73.5272644,107.25335 74.5527124,107.159574 75.6724542,107.159574 C76.5153084,107.159574 77.4025224,107.226954 78.3341051,107.361715 C79.2656878,107.496476 80.1972705,107.697633 81.1288532,107.965187 C82.0604359,108.232741 82.9511857,108.559471 83.8011025,108.945378 C84.6510193,109.331285 85.4187791,109.761797 86.1043819,110.236915 L86.1043819,98.4552297 C84.4151641,97.8452892 82.6276766,97.4061591 80.7419193,97.1378392 C78.8561621,96.8695193 76.7261145,96.7353593 74.3517669,96.7353593 C71.7724305,96.7353593 69.3452444,97.0036792 67.0702086,97.5403189 C64.7951728,98.0769586 62.8069044,98.9095491 61.1054033,100.038091 C59.4039023,101.166632 58.0557141,102.615893 57.0608387,104.385874 C56.0659633,106.155854 55.5685256,108.275686 55.5685256,110.745369 C55.5685256,113.149104 56.0364729,115.232933 56.9723675,116.996856 C57.9082621,118.760779 59.1913141,120.277847 60.8215235,121.548059 C62.4517329,122.818271 64.3184893,123.90041 66.4217748,124.794476 C68.5250603,125.688543 70.7266027,126.553349 73.0264019,127.388895 C74.4727486,127.973083 75.7779473,128.54947 76.9419982,129.118056 C78.1060491,129.686642 79.0931566,130.283721 79.9033207,130.909294 C80.7134848,131.534867 81.3329744,132.197929 81.7617736,132.898479 C82.1905728,133.599029 82.4049724,134.379151 82.4049724,135.238844 C82.4049724,135.909117 82.2175077,136.516676 81.8425784,137.061522 C81.467649,137.606368 80.9342662,138.073267 80.2424371,138.462217 C79.5506079,138.851167 78.7103253,139.151501 77.7215893,139.363218 C76.7328533,139.574936 75.6184108,139.680794 74.3782619,139.680794 C71.9213144,139.680794 69.5029504,139.203795 67.1231699,138.249797 C64.7433894,137.295799 62.5517924,135.909117 60.5483789,134.089751 L56.6112759,129.610744 Z M106.326929,107.468957 L121.102328,107.468957 L121.102328,98.0902386 L81.7740485,98.0902386 L81.7740485,107.468957 L96.5126602,107.468957 L96.5126602,143.681453 L106.326929,143.681453 L106.326929,107.468957 Z" fill="#FFFFFF" fill-rule="nonzero"></path>
    </g>
</svg> 